<?xml version="1.0" encoding="utf-8"?>
<!-- Generator: Adobe Illustrator 16.0.0, SVG Export Plug-In . SVG Version: 6.00 Build 0)  -->
<!DOCTYPE svg PUBLIC "-//W3C//DTD SVG 1.1//EN" "http://www.w3.org/Graphics/SVG/1.1/DTD/svg11.dtd">
<svg version="1.1" id="Layer_1" xmlns="http://www.w3.org/2000/svg" xmlns:xlink="http://www.w3.org/1999/xlink" x="0px" y="0px"
	 width="500px" height="500px" viewBox="0 0 500 500" enable-background="new 0 0 500 500" xml:space="preserve">
<g>
	<path fill-rule="evenodd" clip-rule="evenodd" fill="#FFFFFF" d="M237.162,476.797c-8.756-5.785-17.792-10.118-24.504-16.79
		c-4.13-4.106-8.089-13.092-6.328-17.645c11.215-29.007,23.989-57.413,36.367-85.966c4.031-9.297,10.542-9.572,18.669-5.003
		c10.938,6.149,21.685,12.994,33.3,17.524c32.587,12.709,64.623,4.852,82.707-20.164c17.302-23.933,20.976-50.248,9.164-77.613
		c-12.386-28.707-36.745-42.432-66.169-43.67c-24.262-1.021-48.831,2.982-73.127,5.873c-23.78,2.831-31.105-5.347-22.438-27.614
		c4.152-10.666,9.045-21.124,14.517-31.179c18.813-34.574,38.496-68.686,56.747-103.549c4.151-7.94,3.896-18.19,5.669-27.377
		c-9.003,0.173-19.117-2.28-26.814,0.976c-33.088,13.992-65.766,29.044-97.931,45.042c-11.728,5.833-18.995,5.611-25.053-6.434
		c-9.514-18.914-19.377-37.654-31.461-61.052c-11.657,12.709-26.241,22.305-31.336,35.552c-9.1,23.653-16.169,49.318-17.475,74.485
		c-2.801,53.969-1.806,108.157-1.492,162.253c0.115,19.62,1.854,39.339,4.357,58.821
		C84.958,434.327,152.529,485.946,237.162,476.797z M397.896,45.612c-16.757,31.397-32.193,60.635-47.971,89.688
		c-4.39,8.078-3.776,12.9,5.892,15.781c24.302,7.242,48.458,14.997,74.441,23.1C425.841,129.672,430.468,83.099,397.896,45.612z"/>
	<path fill-rule="evenodd" clip-rule="evenodd" fill="#FFFFFF" d="M237.162,476.797c-84.632,9.149-152.204-42.47-162.632-123.528
		c-2.503-19.482-4.242-39.201-4.357-58.821c-0.314-54.096-1.31-108.285,1.492-162.253c1.306-25.167,8.375-50.832,17.475-74.485
		c5.095-13.247,19.679-22.843,31.336-35.552c12.084,23.398,21.948,42.138,31.461,61.052c6.058,12.044,13.326,12.267,25.053,6.434
		c32.165-15.998,64.842-31.05,97.931-45.042c7.697-3.255,17.812-0.803,26.814-0.976c-1.773,9.187-1.518,19.437-5.669,27.377
		c-18.251,34.864-37.934,68.976-56.747,103.549c-5.471,10.055-10.365,20.513-14.517,31.179
		c-8.667,22.267-1.341,30.445,22.438,27.614c24.296-2.891,48.866-6.894,73.127-5.873c29.424,1.238,53.783,14.963,66.169,43.67
		c11.812,27.365,8.138,53.681-9.164,77.613c-18.084,25.016-50.12,32.873-82.707,20.164c-11.615-4.53-22.361-11.375-33.3-17.524
		c-8.128-4.569-14.638-4.294-18.669,5.003c-12.378,28.553-25.152,56.959-36.367,85.966c-1.761,4.553,2.198,13.538,6.328,17.645
		C219.37,466.679,228.406,471.012,237.162,476.797z"/>
	<path fill-rule="evenodd" clip-rule="evenodd" fill="#FFFFFF" d="M397.896,45.612c32.571,37.487,27.944,84.06,32.362,128.568
		c-25.983-8.103-50.14-15.858-74.441-23.1c-9.668-2.88-10.281-7.703-5.892-15.781C365.703,106.247,381.14,77.009,397.896,45.612z"/>
</g>
</svg>
